<?xml version="1.0" encoding="utf-8"?>
<!-- Generator: Adobe Illustrator 19.2.0, SVG Export Plug-In . SVG Version: 6.00 Build 0)  -->
<svg version="1.1" id="Layer_1" xmlns="http://www.w3.org/2000/svg" xmlns:xlink="http://www.w3.org/1999/xlink" x="0px" y="0px"
	 viewBox="0 0 186.7 71.7" style="enable-background:new 0 0 186.7 71.7;" xml:space="preserve">
<style type="text/css">
	.st0{fill:#54B948;}
</style>
<g>
	<g>
		<g>
			<path d="M184.8,12.8c0-5.6-4.5-10.1-9.9-10.1h-34.3v31.8h7.4V8.4h10.8v26.2h7.4V8.4h6.1c3.4,0,5.2,2.3,5.2,5.2v21h7.4
				C184.8,34.6,184.8,14,184.8,12.8"/>
			<path d="M126.5,2.8c-0.1,0-15,0-19.4,0v5.6h16.2c3.7,0,5.2,2.7,5.2,6.7H115c-5.4,0-9.8,4.3-9.8,9.6c0,5.3,4.3,9.9,9.8,9.9h21
				c0,0,0-20.8,0-21.9C135.9,7,131.9,2.9,126.5,2.8 M116.7,28.8L116.7,28.8c-2.2-0.1-4-1.9-4-4c0-2.1,1.7-3.8,3.9-4h11.9v7.9H116.7z
				"/>
			<path d="M60,8.4h11.7V2.8H57.2c-6,0-12.2,4.4-12.2,15.9c0,10.4,6.2,15.9,11.9,15.9h14.7V29H58.8c-3.6,0-6.3-3.9-6.3-7.6h19.2
				v-5.6H52.5C52.5,11.1,55.2,8.4,60,8.4"/>
			<path d="M90.1,8.4h11.7V2.8H87.3c-6,0-12.2,4.4-12.2,15.9c0,10.4,6.2,15.9,11.9,15.9h14.7V29H88.9c-3.6,0-6.3-3.9-6.3-7.6h19.2
				v-5.6H82.7C82.7,11.1,85.3,8.4,90.1,8.4"/>
			<polygon points="11.5,2.8 25,34.6 31.8,34.6 46.4,2.8 38.3,2.8 28.4,25.4 19.6,2.8 			"/>
			<path class="st0" d="M1.4,2.8l0,21c0,0,0,1.9,0,1.9l0,8.7c0,4.3,1.6,8.4,4.6,11.4c3,3.1,7.1,4.7,11.4,4.7l167.4,0v-9.9l-166.1,0
				c-3.6,0-6.9-1.4-9.5-3.9c-2.5-2.5-3.9-5.9-3.9-9.5c0,0,0-1.6,0-1.6l0-1.9l0-21H1.4z"/>
			<rect x="55.3" y="56.8" width="2.7" height="11.8"/>
			<polygon points="62.6,59 59.4,59 59.4,56.8 68.5,56.8 68.5,59 65.2,59 65.2,68.6 62.6,68.6 			"/>
			<path d="M75.7,56.8h2.7v7.5c0,3.4-1.6,4.5-4.2,4.5c-0.6,0-1.4-0.1-2-0.3l0.3-2.2c0.4,0.1,0.8,0.2,1.4,0.2c1.1,0,1.8-0.5,1.8-2.3
				V56.8z"/>
			<path d="M83.3,56.8v6.8c0,2,0.8,3.1,2.1,3.1c1.4,0,2.2-1,2.2-3.1v-6.8h2.7v6.6c0,3.6-1.8,5.4-4.9,5.4c-3,0-4.7-1.7-4.7-5.4v-6.6
				H83.3z"/>
			<path d="M92.6,65.8c0.7,0.4,1.8,0.7,3,0.7c1.2,0,1.9-0.5,1.9-1.3c0-0.7-0.6-1.2-2-1.6c-2-0.7-3.3-1.8-3.3-3.5
				c0-2,1.7-3.5,4.5-3.5c1.3,0,2.3,0.3,3,0.6l-0.6,2.1c-0.5-0.2-1.3-0.6-2.5-0.6c-1.2,0-1.7,0.5-1.7,1.1c0,0.8,0.6,1.1,2.2,1.7
				c2.1,0.8,3,1.9,3,3.5c0,2-1.5,3.7-4.7,3.7c-1.3,0-2.7-0.4-3.3-0.7L92.6,65.8z"/>
			<polygon points="104.3,59 101.1,59 101.1,56.8 110.2,56.8 110.2,59 106.9,59 106.9,68.6 104.3,68.6 			"/>
			<path d="M116.4,68.6l-2.8-11.8h2.9l0.9,4.8c0.3,1.4,0.5,2.9,0.7,4.1h0c0.2-1.3,0.5-2.7,0.8-4.2l1-4.8h2.8l0.9,5
				c0.3,1.4,0.5,2.6,0.6,4h0c0.2-1.3,0.4-2.7,0.7-4.1l1-4.8h2.7l-3,11.8h-2.9l-1-5.1c-0.2-1.2-0.4-2.3-0.6-3.6h0
				c-0.2,1.3-0.4,2.5-0.7,3.7l-1.1,5.1H116.4z"/>
			<path d="M134.9,68.8c-3.5,0-5.5-2.6-5.5-6c0-3.5,2.3-6.2,5.7-6.2c3.6,0,5.6,2.7,5.6,6C140.7,66.4,138.3,68.8,134.9,68.8
				L134.9,68.8z M135,66.6c1.8,0,2.8-1.7,2.8-4c0-2.1-1-3.9-2.8-3.9c-1.8,0-2.9,1.8-2.9,4C132.1,64.9,133.2,66.6,135,66.6L135,66.6z
				"/>
			<path d="M142.4,56.9c0.9-0.2,2.1-0.3,3.6-0.3c1.8,0,3,0.3,3.8,0.9c0.7,0.6,1.1,1.4,1.1,2.5c0,1.5-1.1,2.5-2.1,2.9V63
				c0.8,0.3,1.3,1.1,1.6,2.2c0.4,1.3,0.7,2.9,0.9,3.3h-2.7c-0.2-0.4-0.5-1.3-0.8-2.7c-0.3-1.5-0.8-1.9-1.9-1.9h-0.8v4.6h-2.6V56.9z
				 M145.1,62h1c1.3,0,2.1-0.7,2.1-1.7c0-1.1-0.7-1.6-2-1.6c-0.6,0-1,0-1.2,0.1V62z"/>
			<path d="M152.8,56.8h2.6V62h0c0.3-0.5,0.5-0.9,0.8-1.3l2.7-3.9h3.3l-3.9,5l4.1,6.8h-3.1l-2.9-5.1l-1,1.2v3.9h-2.6V56.8z"/>
			<path d="M163.6,65.8c0.7,0.4,1.8,0.7,3,0.7c1.2,0,1.9-0.5,1.9-1.3c0-0.7-0.6-1.2-2-1.6c-2-0.7-3.3-1.8-3.3-3.5
				c0-2,1.7-3.5,4.5-3.5c1.3,0,2.3,0.3,3,0.6l-0.6,2.1c-0.5-0.2-1.3-0.6-2.5-0.6c-1.2,0-1.7,0.5-1.7,1.1c0,0.8,0.6,1.1,2.2,1.7
				c2.1,0.8,3,1.9,3,3.5c0,2-1.5,3.7-4.7,3.7c-1.3,0-2.7-0.4-3.3-0.7L163.6,65.8z"/>
			<path d="M174.2,68.8c-0.9,0-1.6-0.7-1.6-1.6c0-0.9,0.6-1.6,1.6-1.6c0.9,0,1.5,0.6,1.6,1.6C175.7,68.1,175.1,68.8,174.2,68.8
				L174.2,68.8z M173.2,64.7l-0.4-7.9h2.8l-0.4,7.9H173.2z"/>
			<polygon points="179,57.2 177.8,57.2 177.8,56.8 180.7,56.8 180.7,57.2 179.5,57.2 179.5,60.7 179,60.7 			"/>
			<path d="M184.2,59c0-0.5-0.1-1.2-0.1-1.7h0c-0.1,0.5-0.3,1-0.5,1.5l-0.7,1.9h-0.4l-0.6-1.9c-0.2-0.6-0.3-1.1-0.4-1.5h0
				c0,0.5,0,1.1-0.1,1.7l-0.1,1.7h-0.5l0.3-3.9h0.6l0.7,1.9c0.2,0.5,0.3,0.9,0.4,1.3h0c0.1-0.4,0.2-0.8,0.4-1.3l0.7-1.9h0.6l0.2,3.9
				h-0.5L184.2,59z"/>
		</g>
	</g>
</g>
</svg>
